A man uncovers some long-held secrets when he investigates a decades-old crime in this drama from filmmaker Juan José Campanella. Ricardo Darín stars as Benjamín, a former criminal court employee who wants to write a novel about an Argentine case from the 1970s where a woman was raped and murdered. He confides his intentions to a judge with whom he's been secretly smitten for years, Irene (Soledad Villamil), but she expresses reservations about the idea, for reasons that soon become apparent. Meanwhile, flashbacks set up a parallel story, unfolding in 1970s Argentina. In that narrative, Argentina has fallen under the control of a military junta and a fair trial has become an increasingly uncommon event in that nation's courts. A woman is found raped and murdered while her husband was at work, and two immigrant workers are essentially forced into confessing to the crime. Back in the present day, Benjamín teams up with his colleague and friend, the lush Sandoval (Guillermo Francella), and the two go about identifying and tagging the perpetrator of the original crime. Subtle detail in a photograph alerts Benjamin to the possibility that a man named Gómez (Javier Godino) may have been the real culprit, but finding Gómez and obtaining conclusive evidence against him is no simple task. Moreover, as Benjamín and Gómez struggle to have the case reopened, they also find that bureaucracy and power in Argentine government have made this close to impossible. (Mark Deming)

General
Complete name                    : El secreto de sus ojos.mkv
Format                           : Matroska
File size                        : 4.37 GiB
Duration                         : 2h 9mn
Overall bit rate                 : 4 842 Kbps
Encoded date                     : UTC 2010-03-23 23:30:31
Writing application              : mkvmerge v3.1.0 ('Happy up here') built on Jan 19 2010 12:09:24
Writing library                  : libebml v0.7.9 + libmatroska v0.8.1

Video
ID                               : 1
Format                           : AVC
Format/Info                      : Advanced Video Codec
Format profile                   : High@L4.1
Format settings, CABAC           : Yes
Format settings, ReFrames        : 5 frames
Muxing mode                      : Container profile=Unknown@4.1
Codec ID                         : V_MPEG4/ISO/AVC
Duration                         : 2h 9mn
Bit rate                         : 4 105 Kbps
Nominal bit rate                 : 4 201 Kbps
Width                            : 1 280 pixels
Height                           : 544 pixels
Display aspect ratio             : 2.35:1
Frame rate                       : 24.000 fps
Resolution                       : 8 bits
Colorimetry                      : 4:2:0
Scan type                        : Progressive
Bits/(Pixel*Frame)               : 0.246
Stream size                      : 3.71 GiB (85%)
Writing library                  : x264 core 88 r1471 1144615
Encoding settings                : cabac=1 / ref=5 / deblock=1:0:0 / analyse=0x3:0x133 / me=umh / subme=7 / psy=1 / psy_rd=1.00:0.00 / mixed_ref=1 / me_range=16 / chroma_me=1 / trellis=1 / 8x8dct=1 / cqm=0 / deadzone=21,11 / fast_pskip=0 / chroma_qp_offset=-2 / threads=12 / sliced_threads=0 / nr=0 / decimate=1 / mbaff=0 / constrained_intra=0 / bframes=3 / b_pyramid=2 / b_adapt=1 / b_bias=0 / direct=1 / wpredb=1 / wpredp=2 / keyint=240 / keyint_min=24 / scenecut=40 / intra_refresh=0 / rc_lookahead=40 / rc=2pass / mbtree=1 / bitrate=4201 / ratetol=1.0 / qcomp=0.60 / qpmin=10 / qpmax=51 / qpstep=4 / cplxblur=20.0 / qblur=0.5 / ip_ratio=1.40 / aq=1:1.00

Audio
ID                               : 2
Format                           : AC-3
Format/Info                      : Audio Coding 3
Codec ID                         : A_AC3
Duration                         : 2h 9mn
Bit rate mode                    : Constant
Bit rate                         : 640 Kbps
Channel(s)                       : 6 channels
Channel positions                : Front: L C R, Side: L R, LFE
Sampling rate                    : 48.0 KHz
Stream size                      : 592 MiB (13%)
Language                         : Spanish

Text
ID                               : 3
Format                           : UTF-8
Codec ID                         : S_TEXT/UTF8
Codec ID/Info                    : UTF-8 Plain Text
Language                         : English
 
http://www.imdb.com/title/tt1305806/

Spanish audio; English, Spanish (Argentinian) and Portuguese subtitles